<!--?xml version="1.0" encoding="utf-8"?-->
<!-- Generator: Adobe Illustrator 18.1.1, SVG Export Plug-In . SVG Version: 6.00 Build 0)  -->

<svg version="1.1" id="_x32_" xmlns="http://www.w3.org/2000/svg" xmlns:xlink="http://www.w3.org/1999/xlink" x="0px" y="0px" viewBox="0 0 512 512" style="width: 512px; height: 512px; opacity: 1;" xml:space="preserve">
<style type="text/css">
	.st0{fill:#4B4B4B;}
</style>
<g>
	<path class="st0" d="M481.194,210.329c-7.292-9.336-18.47-14.789-30.301-14.789h-89.561L348.298,78.585l-0.083-0.452
		c-7.51-45.1-46.509-78.116-92.218-78.132c-45.708,0.017-84.7,33.033-92.21,78.132l-0.078,0.452L150.669,195.54H61.108
		c-11.836,0-23.014,5.453-30.306,14.789c-7.284,9.32-9.858,21.493-6.992,32.976l48.974,195.894
		C83.477,481.986,121.921,512,166.026,512H345.97c44.108,0,82.549-30.014,93.246-72.802l48.974-195.894
		C491.056,231.822,488.482,219.649,481.194,210.329z M315.508,300.536c0,5.083-2.562,9.829-6.815,12.617
		c-4.256,2.797-9.627,3.257-14.291,1.251l-38.408-16.632l-38.404,16.632c-4.655,2.006-10.035,1.546-14.283-1.251
		c-4.26-2.788-6.814-7.534-6.814-12.617v-35.731c0-5.083,2.554-9.829,6.814-12.618c4.248-2.796,9.628-3.249,14.283-1.233
		l38.404,16.615l38.408-16.615c4.664-2.016,10.035-1.563,14.291,1.233c4.253,2.789,6.815,7.535,6.815,12.618V300.536z
		 M255.998,195.54h-71.215l12.503-112.102c4.886-28.591,29.672-49.533,58.712-49.525c29.04-0.008,53.834,20.934,58.725,49.525
		l12.494,112.102H255.998z" style="fill: rgb(75, 75, 75);"></path>
</g>
</svg>
