<?xml version="1.0" standalone="no"?>
<!DOCTYPE svg PUBLIC "-//W3C//DTD SVG 20010904//EN"
 "http://www.w3.org/TR/2001/REC-SVG-20010904/DTD/svg10.dtd">
<svg version="1.0" xmlns="http://www.w3.org/2000/svg"
 width="512.000000pt" height="512.000000pt" viewBox="0 0 512.000000 512.000000"
 preserveAspectRatio="xMidYMid meet">
<metadata>
Created by potrace 1.11, written by Peter Selinger 2001-2013
</metadata>
<g transform="translate(0.000000,512.000000) scale(0.100000,-0.100000)"
fill="#000000" stroke="none">
<path d="M3138 4697 l-368 -370 -365 364 c-202 200 -368 366 -370 368 -2 1
-32 -6 -67 -17 -257 -82 -358 -116 -388 -129 -117 -52 -251 -120 -302 -154
-33 -21 -63 -39 -68 -39 -5 0 -10 -3 -12 -7 -1 -5 -23 -24 -48 -43 -258 -198
-467 -507 -561 -830 -74 -253 -103 -471 -124 -935 -7 -144 -14 -275 -20 -370
-3 -38 -7 -104 -10 -145 -5 -70 -12 -142 -20 -200 -2 -14 -6 -50 -10 -80 -3
-30 -10 -80 -15 -110 -6 -30 -12 -71 -14 -90 -3 -19 -12 -69 -21 -110 -9 -41
-19 -86 -21 -100 -3 -14 -7 -33 -10 -42 -3 -9 -7 -25 -9 -37 -32 -168 -165
-547 -291 -826 -22 -50 -21 -58 11 -65 40 -9 1021 -281 1108 -306 11 -4 20 2
26 18 12 29 12 33 14 -197 l2 -190 1613 0 c939 0 1616 4 1619 9 3 5 6 312 6
683 l0 674 102 153 c263 396 432 772 529 1176 32 135 34 147 53 295 9 68 10
335 1 415 -45 410 -218 773 -504 1057 -80 79 -244 213 -260 213 -3 0 -18 8
-32 18 -119 83 -344 176 -617 256 -49 15 -112 35 -140 44 l-50 18 -367 -369z
m-765 -294 l397 -398 393 392 c215 216 395 395 399 399 12 11 286 -70 348
-103 14 -7 31 -13 38 -13 37 0 294 -150 392 -229 213 -172 389 -430 474 -696
30 -96 32 -102 61 -270 14 -79 15 -372 1 -440 -3 -16 -7 -43 -10 -60 -42 -281
-130 -552 -268 -833 -80 -162 -196 -360 -302 -512 -59 -85 -84 -113 -95 -106
-3 2 -7 -7 -7 -20 -1 -13 -15 -39 -30 -57 -16 -18 -40 -48 -54 -67 -90 -121
-256 -306 -437 -486 l-112 -112 -68 81 c-37 44 -75 88 -84 96 -8 9 -37 43 -65
76 -27 33 -54 65 -60 70 -6 6 -50 56 -99 113 l-88 103 34 27 c351 285 486 423
643 657 191 284 343 732 381 1120 3 33 8 74 10 91 2 17 7 83 10 147 l7 117
-59 0 -58 0 -1 -53 c-1 -115 -13 -244 -40 -417 -14 -89 -23 -135 -49 -250 -25
-106 -100 -330 -126 -377 -10 -18 -17 -33 -14 -33 9 0 -98 -198 -146 -269 -27
-41 -49 -78 -49 -82 0 -4 -6 -12 -13 -16 -7 -4 -34 -36 -60 -70 -70 -92 -211
-232 -337 -335 -91 -74 -135 -111 -150 -124 -8 -8 -43 -40 -78 -72 l-62 -57
37 -42 c21 -23 47 -52 57 -65 23 -27 126 -148 141 -164 15 -16 106 -121 155
-179 71 -84 143 -166 185 -213 l41 -44 180 178 c153 152 244 249 337 358 10
12 37 43 60 70 23 27 47 55 52 63 7 9 10 -152 10 -499 l0 -513 -1390 0 -1390
0 0 735 c0 404 3 755 8 780 4 25 9 54 11 65 10 53 21 127 32 215 3 25 7 56 9
70 2 14 9 63 14 110 10 84 14 116 26 235 4 33 8 74 10 90 2 17 7 67 10 112 l7
81 -52 3 c-60 5 -65 2 -66 -31 -2 -25 -11 -134 -19 -228 -4 -44 -11 -103 -20
-182 -3 -19 -9 -75 -15 -125 -6 -49 -13 -101 -15 -115 -2 -14 -11 -76 -20
-138 -9 -62 -18 -121 -20 -131 -2 -10 -6 -34 -9 -52 -3 -19 -8 -45 -11 -59 -3
-14 -8 -41 -11 -60 -24 -140 -152 -662 -169 -690 -2 -3 -6 -17 -9 -31 -9 -48
-84 -244 -92 -242 -11 1 -576 157 -650 179 l-52 15 30 77 c16 42 33 86 38 97
28 60 123 363 137 434 2 14 6 28 8 31 8 13 65 282 81 380 23 147 31 203 40
295 3 39 8 78 9 87 2 10 7 64 10 120 3 57 8 128 10 158 5 55 11 169 20 375 12
249 31 454 51 560 3 11 7 36 10 55 20 121 70 287 125 410 41 92 151 273 189
310 3 3 25 27 49 54 163 181 361 301 676 412 83 29 157 53 165 53 8 1 194
-178 413 -396z"/>
</g>
</svg>
